<svg xmlns="http://www.w3.org/2000/svg" viewBox="0 0 936 936" height="936" width="936">
    <path fill="#c7ccd8" opacity="1.00" d=" M 88.54 1.74 C 91.99 1.32 95.47 1.07 98.96 1.00 C 336.97 1.01 574.98 1.00 812.99 1.00 C 826.41 1.27 839.98 0.06 853.24 2.73 C 872.95 6.43 891.41 16.30 905.50 30.56 C 920.81 45.91 930.91 66.36 933.67 87.87 C 934.80 95.54 934.45 103.30 934.50 111.02 C 934.50 346.36 934.50 581.69 934.50 817.03 C 934.41 824.86 934.68 832.71 934.35 840.54 C 933.11 862.32 924.42 883.57 910.08 900.01 C 891.11 922.13 862.09 935.18 832.94 934.50 C 589.30 934.50 345.67 934.50 102.03 934.50 C 81.80 934.80 61.54 928.68 44.84 917.27 C 22.18 902.01 6.28 877.11 2.18 850.08 C 0.59 840.79 1.07 831.34 1.00 821.96 C 1.00 581.64 1.00 341.32 1.00 101.00 C 0.83 76.45 10.29 52.04 26.82 33.92 C 42.67 16.28 64.98 4.60 88.54 1.74 M 131.04 145.04 C 131.02 360.18 131.03 575.32 131.03 790.45 C 170.49 790.49 209.95 790.49 249.40 790.45 C 249.42 575.31 249.43 360.17 249.40 145.03 C 209.94 145.03 170.49 145.02 131.04 145.04 M 541.63 145.88 C 519.98 147.76 498.58 152.54 478.22 160.14 C 427.69 178.82 383.92 214.95 355.81 260.88 C 328.64 304.81 316.33 357.64 321.12 409.06 C 324.76 450.93 339.84 491.70 364.12 526.00 C 389.08 561.46 423.72 590.03 463.31 607.75 C 501.53 624.99 544.29 631.87 586.00 627.83 C 628.41 623.88 669.60 608.25 704.08 583.27 C 736.08 560.18 762.35 529.19 779.76 493.77 C 800.50 452.01 808.41 404.14 802.74 357.90 C 798.05 318.63 783.43 280.62 760.69 248.28 C 738.11 216.03 707.61 189.38 672.57 171.44 C 632.49 150.75 586.52 141.96 541.63 145.88 Z">
    </path>
</svg>